<?xml version="1.0" encoding="UTF-8"?>
<svg xmlns="http://www.w3.org/2000/svg" xmlns:xlink="http://www.w3.org/1999/xlink" width="300px" height="150px" viewBox="0 0 244 244" version="1.1">
<g id="surface1">
<path style=" stroke:none;fill-rule:nonzero;fill:rgb(0%,0%,0%);fill-opacity:1;" d="M 230.339844 108.363281 L 224.535156 108.363281 L 224.535156 73.484375 C 224.535156 59.222656 212.925781 47.664062 198.710938 47.664062 L 193.359375 47.664062 L 193.410156 34.703125 C 193.410156 25.09375 185.601562 17.289062 175.996094 17.289062 L 21.167969 17.289062 C 9.609375 17.289062 0.148438 26.597656 0 38.15625 L 0 209.296875 C 0 218.90625 7.804688 226.710938 17.414062 226.710938 L 198.761719 226.710938 C 213.023438 226.710938 224.585938 215.101562 224.585938 200.890625 L 224.585938 165.960938 L 230.390625 165.960938 C 237.894531 165.960938 244 159.855469 244 152.351562 L 244 121.976562 C 243.949219 114.46875 237.84375 108.363281 230.339844 108.363281 Z M 21.167969 29.300781 L 175.996094 29.300781 C 178.945312 29.300781 181.398438 31.699219 181.398438 34.652344 L 181.347656 47.664062 L 21.167969 47.664062 C 16.113281 47.664062 12.011719 43.5625 12.011719 38.507812 C 12.011719 33.453125 16.113281 29.300781 21.167969 29.300781 Z M 212.523438 200.839844 C 212.523438 208.445312 206.320312 214.652344 198.710938 214.652344 L 17.363281 214.652344 C 14.410156 214.652344 11.960938 212.25 11.960938 209.246094 L 11.960938 57.570312 C 14.761719 58.921875 17.863281 59.675781 21.167969 59.675781 L 198.710938 59.675781 C 206.320312 59.675781 212.523438 65.878906 212.523438 73.484375 L 212.523438 108.363281 L 171.539062 108.363281 C 164.035156 108.363281 157.929688 114.46875 157.929688 121.976562 L 157.929688 152.351562 C 157.929688 159.855469 164.035156 165.960938 171.539062 165.960938 L 212.523438 165.960938 Z M 231.941406 152.351562 C 231.941406 153.25 231.238281 153.953125 230.339844 153.953125 L 171.589844 153.953125 C 170.691406 153.953125 169.988281 153.25 169.988281 152.351562 L 169.988281 121.976562 C 169.988281 121.125 170.691406 120.375 171.589844 120.375 L 230.339844 120.375 C 231.191406 120.375 231.941406 121.074219 231.941406 121.976562 Z M 231.941406 152.351562 "/>
</g>
</svg>
